<svg xmlns="http://www.w3.org/2000/svg" aria-hidden="true" style="position:absolute;width:0;height:0;overflow:hidden">
    <defs>
        <symbol id="burger" viewBox="0 0 43 32">
            <path
                d="M2.667 0H40a2.667 2.667 0 1 1 0 5.334H2.667a2.667 2.667 0 1 1 0-5.334zM2.667 13.333H40a2.667 2.667 0 1 1 0 5.334H2.667a2.667 2.667 0 1 1 0-5.334zM2.667 26.667H40a2.667 2.667 0 1 1 0 5.334H2.667a2.667 2.667 0 1 1 0-5.334z" />
        </symbol>
        <symbol id="cross" viewBox="0 0 32 32">
            <path
                d="M3.033 31.8a3.03 3.03 0 0 1-2.152-.727 3.032 3.032 0 0 1 0-4.274L26.615 1.065a3.03 3.03 0 0 1 4.425 4.122L5.155 31.072a3.028 3.028 0 0 1-2.122.727z" />
            <path
                d="M28.737 31.8a3.031 3.031 0 0 1-2.122-.879L.881 5.187A3.03 3.03 0 0 1 5.155.913L31.04 26.647a3.03 3.03 0 0 1 0 4.425 3.029 3.029 0 0 1-2.304.727z" />
        </symbol>
        <symbol id="location" viewBox="0 0 32 32">
            <path
                d="M11.064 4.246a8.935 8.935 0 0 1 9.123.075c2.779 1.727 4.468 4.81 4.453 8.127-.065 3.295-1.876 6.392-4.14 8.786a24.271 24.271 0 0 1-4.356 3.657 1.517 1.517 0 0 1-.528.187 1.062 1.062 0 0 1-.507-.154 24 24 0 0 1-6.275-5.898 12.034 12.034 0 0 1-2.35-6.743c-.002-3.323 1.747-6.391 4.58-8.038zm1.638 9.413a3.084 3.084 0 0 0 2.85 1.941c.818.006 1.604-.322 2.183-.91s.904-1.387.901-2.22c.004-1.271-.744-2.42-1.896-2.91s-2.48-.224-3.364.674a3.182 3.182 0 0 0-.673 3.424zM22.047 27.672c0 .716-2.903 1.297-6.484 1.297s-6.484-.581-6.484-1.297 2.903-1.297 6.484-1.297 6.484.581 6.484 1.297z" />
        </symbol>
        <symbol id="facebook" viewBox="0 0 32 32">
            <path fill="#008a9c"
                d="M5.246 0h21.508A5.246 5.246 0 0 1 32 5.246v21.508A5.246 5.246 0 0 1 26.754 32H5.246A5.246 5.246 0 0 1 0 26.754V5.246A5.246 5.246 0 0 1 5.246 0z"
                style="fill:var(--color1, #008a9c)" />
            <path fill="#fff"
                d="M27.688 0H4.312A4.313 4.313 0 0 0 0 4.312v23.376A4.312 4.312 0 0 0 4.312 32h11.529l.02-11.435H12.89a.701.701 0 0 1-.701-.698l-.014-3.686a.702.702 0 0 1 .701-.704h2.965v-3.562c0-4.133 2.524-6.384 6.211-6.384h3.026c.387 0 .701.314.701.701V9.34a.701.701 0 0 1-.701.701l-1.857.001c-2.005 0-2.393.953-2.393 2.351v3.083h4.406a.7.7 0 0 1 .696.784l-.437 3.686a.701.701 0 0 1-.696.619h-3.95L20.827 32h6.86a4.313 4.313 0 0 0 4.312-4.312V4.312A4.312 4.312 0 0 0 27.687 0z"
                style="fill:var(--color2, #fff)" />
        </symbol>
        <symbol id="linkedIn" viewBox="0 0 32 32">
            <path fill="#fff"
                d="M27.636 0H4.363A4.364 4.364 0 0 0-.001 4.364v23.273a4.364 4.364 0 0 0 4.364 4.364h23.273A4.364 4.364 0 0 0 32 27.637V4.364A4.364 4.364 0 0 0 27.636 0z"
                style="fill:var(--color2, #fff)" />
            <path fill="#008a9c"
                d="M11.527 8.727a2.724 2.724 0 0 1-1.684 2.52 2.733 2.733 0 0 1-2.972-.591 2.725 2.725 0 0 1 .414-4.196 2.727 2.727 0 0 1 4.242 2.268zM10.909 13.273v12.049a.661.661 0 0 1-.415.626.677.677 0 0 1-.259.052H7.36a.676.676 0 0 1-.677-.677V13.272a.676.676 0 0 1 .676-.676h2.875a.673.673 0 0 1 .674.677zM25.934 19.546v5.833a.623.623 0 0 1-.622.622h-3.091a.623.623 0 0 1-.622-.622v-5.653c0-.844.247-3.695-2.205-3.695-1.9 0-2.287 1.951-2.364 2.827v6.52a.62.62 0 0 1-.613.621h-2.985a.627.627 0 0 1-.439-.182.61.61 0 0 1-.181-.44V13.219a.627.627 0 0 1 .382-.575.623.623 0 0 1 .238-.047h2.985a.626.626 0 0 1 .622.622v1.051c.705-1.058 1.751-1.875 3.982-1.875 4.942 0 4.913 4.614 4.913 7.149z"
                style="fill:var(--color1, #008a9c)" />
        </symbol>
        <symbol id="problems1" viewBox="0 0 32 32">
            <path fill="#008a9c"
                d="M5.246 0h21.508A5.246 5.246 0 0 1 32 5.246v21.508A5.246 5.246 0 0 1 26.754 32H5.246A5.246 5.246 0 0 1 0 26.754V5.246A5.246 5.246 0 0 1 5.246 0z"
                style="fill:var(--color1, #008a9c)" />
            <path fill="#fff"
                d="M15.235 8.342c-3.802 0-6.893 3.091-6.893 6.893s3.091 6.893 6.893 6.893c3.802 0 6.893-3.091 6.893-6.893s-3.091-6.893-6.893-6.893zm0 8.614H12.94c-.314 0-.574-.26-.574-.574s.26-.574.574-.574h2.295c.314 0 .574.26.574.574s-.26.574-.574.574zm2.295-2.295h-4.59c-.314 0-.574-.26-.574-.574s.26-.574.574-.574h4.59c.314 0 .574.26.574.574s-.26.574-.574.574zM23.643 21.317c-.252-.467-.788-.727-1.507-.727-.543 0-1.01.222-1.285.604s-.337.895-.168 1.408c.329.995.903 1.216 1.216 1.255a.84.84 0 0 0 .145.008c.337 0 .857-.145 1.362-.903.405-.589.482-1.178.237-1.645z"
                style="fill:var(--color2, #fff)" />
        </symbol>
        <symbol id="problems2" viewBox="0 0 32 32">
            <path fill="#008a9c"
                d="M5.246 0h21.508A5.246 5.246 0 0 1 32 5.246v21.508A5.246 5.246 0 0 1 26.754 32H5.246A5.246 5.246 0 0 1 0 26.754V5.246A5.246 5.246 0 0 1 5.246 0z"
                style="fill:var(--color1, #008a9c)" />
            <path fill="#fff"
                d="M20.721 8.787h-9.967c-1.836 0-3.322 1.478-3.322 3.297v8.356c0 1.819 1.487 3.297 3.322 3.297h9.967c1.836 0 3.322-1.478 3.322-3.297v-8.356c0-1.819-1.487-3.297-3.322-3.297zm-7.89 3.464c1.055 0 1.919.864 1.919 1.919s-.864 1.919-1.919 1.919c-1.055 0-1.919-.864-1.919-1.919s.864-1.919 1.919-1.919zm3.214 7.882a.42.42 0 0 1-.307.133H9.924c-.116 0-.233-.05-.307-.133s-.116-.199-.108-.316a2.947 2.947 0 0 1 2.65-2.633 7.11 7.11 0 0 1 1.337 0 2.941 2.941 0 0 1 2.65 2.633.393.393 0 0 1-.1.316zm5.507.075h-1.661c-.341 0-.623-.282-.623-.623s.282-.623.623-.623h1.661c.34 0 .623.282.623.623s-.282.623-.623.623zm0-3.323H18.23c-.34 0-.623-.282-.623-.623s.282-.623.623-.623h3.322c.34 0 .623.282.623.623s-.282.623-.623.623zm0-3.322h-4.153c-.341 0-.623-.282-.623-.623s.282-.623.623-.623h4.153c.34 0 .623.282.623.623s-.282.623-.623.623z"
                style="fill:var(--color2, #fff)" />
        </symbol>
        <symbol id="problems3" viewBox="0 0 32 32">
            <path fill="#008a9c"
                d="M5.246 0h21.508A5.246 5.246 0 0 1 32 5.246v21.508A5.246 5.246 0 0 1 26.754 32H5.246A5.246 5.246 0 0 1 0 26.754V5.246A5.246 5.246 0 0 1 5.246 0z"
                style="fill:var(--color1, #008a9c)" />
            <path fill="#fff"
                d="M13.771 16.698c2.168 0 3.905-1.76 3.905-3.956s-1.737-3.956-3.905-3.956-3.905 1.76-3.905 3.956c0 2.196 1.737 3.956 3.905 3.956zm0 1.937c-3.184 0-5.902.509-5.902 2.543s2.702 2.56 5.902 2.56c3.183 0 5.902-.509 5.902-2.543s-2.702-2.56-5.902-2.56zm8.181-4.271h.947c.39 0 .707.322.707.717s-.318.717-.707.717h-.947v.926c0 .395-.317.717-.707.717s-.707-.322-.707-.717v-.926h-.945c-.39 0-.707-.322-.707-.717s.317-.717.707-.717h.945v-.926c0-.395.318-.717.707-.717s.707.322.707.717v.926z"
                style="fill:var(--color2, #fff)" />
        </symbol>
        <symbol id="problems4" viewBox="0 0 32 32">
            <path fill="#008a9c"
                d="M5.246 0h21.508A5.246 5.246 0 0 1 32 5.246v21.508A5.246 5.246 0 0 1 26.754 32H5.246A5.246 5.246 0 0 1 0 26.754V5.246A5.246 5.246 0 0 1 5.246 0z"
                style="fill:var(--color1, #008a9c)" />
            <path fill="#fff"
                d="M14.718 9.589c-.527 0-.976.367-1.102.861h4.236a1.144 1.144 0 0 0-1.102-.861h-2.031zm4.33.86h1.559c1.653 0 3 1.363 3 3.036 0 0-.047.708-.063 1.695a.259.259 0 0 1-.102.201c-.379.28-.725.511-.757.527a12.001 12.001 0 0 1-4.443 1.8.25.25 0 0 1-.263-.128 2.593 2.593 0 0 0-2.245-1.297c-.938 0-1.793.506-2.26 1.293a.251.251 0 0 1-.261.126 12.206 12.206 0 0 1-4.422-1.785l-.756-.526a.225.225 0 0 1-.102-.191c-.024-.406-.063-1.713-.063-1.713 0-1.673 1.346-3.036 3-3.036h1.551c.15-1.155 1.118-2.056 2.299-2.056h2.031c1.181 0 2.149.9 2.299 2.056zm4.291 6.455-.031.016c-1.59 1.068-3.503 1.777-5.511 2.072a.593.593 0 0 1-.646-.43 1.43 1.43 0 0 0-1.401-1.084h-.024c-.669 0-1.228.43-1.401 1.084a.593.593 0 0 1-.646.43c-2.008-.295-3.921-1.004-5.511-2.072-.008-.008-.087-.056-.15-.016-.071.04-.071.135-.071.135l.055 4.064c0 1.673 1.338 3.028 2.992 3.028h9.479c1.653 0 2.992-1.355 2.992-3.028l.063-4.064s0-.096-.071-.135c-.039-.024-.087-.016-.118 0zm-7.015 3.339c0 .335-.26.598-.59.598a.593.593 0 0 1-.59-.598v-1.028c0-.327.268-.598.59-.598.331 0 .59.271.59.598v1.028z"
                style="fill:var(--color2, #fff)" />
        </symbol>
        <symbol id="services1" viewBox="0 0 32 32">
            <path fill="#008a9c"
                d="M5.246 0h21.508A5.246 5.246 0 0 1 32 5.246v21.508A5.246 5.246 0 0 1 26.754 32H5.246A5.246 5.246 0 0 1 0 26.754V5.246A5.246 5.246 0 0 1 5.246 0z"
                style="fill:var(--color1, #008a9c)" />
            <path fill="#fff"
                d="M15.73 18.729c-3.469 0-6.396.567-6.396 2.754s2.946 2.735 6.396 2.735c3.469 0 6.396-.567 6.396-2.754s-2.946-2.735-6.396-2.735zM15.73 16.644c2.349 0 4.232-1.894 4.232-4.257S18.079 8.13 15.73 8.13s-4.232 1.893-4.232 4.257 1.883 4.257 4.232 4.257zM24.919 13.193c.608-2.39-1.174-4.537-3.443-4.537-.247 0-.483.027-.713.073a.136.136 0 0 0-.083.05c-.021.034-.005.081.017.11a5.835 5.835 0 0 1 1.073 3.389 5.797 5.797 0 0 1-.989 3.259.159.159 0 0 0 .107.245c.158.028.32.043.486.047 1.652.043 3.135-1.026 3.544-2.637zM26.65 19.007c-.302-.648-1.033-1.093-2.143-1.311-.524-.129-1.942-.31-3.261-.285-.02.003-.031.016-.032.025-.003.013.003.034.029.048.61.303 2.966 1.623 2.669 4.405-.013.12.084.225.203.206.58-.083 2.072-.406 2.534-1.41a1.931 1.931 0 0 0 0-1.679zM10.799 8.915a3.54 3.54 0 0 0-.713-.073c-2.269 0-4.05 2.147-3.442 4.537.409 1.611 1.892 2.68 3.544 2.637.166-.005.329-.02.486-.047a.159.159 0 0 0 .107-.245 5.8 5.8 0 0 1-.989-3.259c0-1.258.393-2.428 1.074-3.389.022-.03.038-.076.016-.11-.018-.028-.051-.043-.083-.05zM7.056 17.696c-1.11.218-1.839.663-2.142 1.311a1.927 1.927 0 0 0 0 1.68c.463 1.003 1.955 1.327 2.534 1.409.12.018.215-.085.203-.206-.296-2.782 2.06-4.101 2.67-4.404.025-.014.031-.035.028-.049a.033.033 0 0 0-.032-.024c-1.32-.025-2.737.156-3.262.284z"
                style="fill:var(--color2, #fff)" />
        </symbol>
        <symbol id="services2" viewBox="0 0 32 32">
            <path fill="#008a9c"
                d="M5.246 0h21.508A5.246 5.246 0 0 1 32 5.246v21.508A5.246 5.246 0 0 1 26.754 32H5.246A5.246 5.246 0 0 1 0 26.754V5.246A5.246 5.246 0 0 1 5.246 0z"
                style="fill:var(--color1, #008a9c)" />
            <path fill="#fff"
                d="M15.753 8.131c-4.572 0-7.885 3.73-7.885 7.869 0 1.322.386 2.683 1.062 3.927a.82.82 0 0 1 .055.708l-.527 1.763c-.118.425.244.74.645.614l1.589-.472c.433-.142.771.039 1.173.283 1.149.677 2.58 1.023 3.871 1.023 3.903 0 7.869-3.014 7.869-7.869 0-4.186-3.384-7.845-7.853-7.845z"
                style="fill:var(--color2, #fff)" />
            <path fill="#008a9c"
                d="M15.722 17.015A1.015 1.015 0 0 1 14.715 16c0-.551.456-1.007 1.007-.999.559 0 1.007.449 1.007 1.007a1.01 1.01 0 0 1-1.007 1.007zm-3.627 0a1.014 1.014 0 0 1-1.007-1.007c0-.559.449-1.007 1.007-1.007s1.007.449 1.007 1.007c0 .551-.449.999-1.007 1.007zm6.248-1.007c0 .551.449 1.007 1.007 1.007s1.007-.456 1.007-1.007c0-.559-.449-1.007-1.007-1.007s-1.007.449-1.007 1.007z"
                style="fill:var(--color1, #008a9c)" />
        </symbol>
        <symbol id="services3" viewBox="0 0 32 32">
            <path fill="#008a9c"
                d="M5.246 0h21.508A5.246 5.246 0 0 1 32 5.246v21.508A5.246 5.246 0 0 1 26.754 32H5.246A5.246 5.246 0 0 1 0 26.754V5.246A5.246 5.246 0 0 1 5.246 0z"
                style="fill:var(--color1, #008a9c)" />
            <path fill="#fff"
                d="M23.156 8.53a1.556 1.556 0 0 0-1.519-.383L8.976 11.704a1.48 1.48 0 0 0-1.088 1.156c-.112.571.279 1.296.788 1.599l3.959 2.35c.406.242.93.181 1.266-.146l4.533-4.407a.59.59 0 0 1 .834 0 .566.566 0 0 1 0 .811l-4.541 4.407a.981.981 0 0 0-.152 1.231l2.419 3.863c.283.458.771.719 1.306.719.063 0 .134 0 .197-.008a1.519 1.519 0 0 0 1.283-1.056l3.753-12.217a1.456 1.456 0 0 0-.378-1.476z"
                style="fill:var(--color2, #fff)" />
            <path fill="#fff"
                d="M8.664 19.416a.596.596 0 0 1-.417-.168.561.561 0 0 1 0-.811l1.074-1.045c.231-.223.604-.223.835 0s.23.588 0 .812l-1.075 1.044a.596.596 0 0 1-.417.168zm2.96.912a.596.596 0 0 1-.417-.168.561.561 0 0 1 0-.811l1.074-1.045c.231-.223.604-.223.835 0s.23.588 0 .812l-1.075 1.044a.596.596 0 0 1-.417.168zm.199 2.73c.115.112.266.168.417.168s.302-.056.417-.168l1.075-1.044c.23-.224.23-.588 0-.812s-.604-.223-.835 0l-1.074 1.045a.561.561 0 0 0 0 .811z"
                style="fill:var(--color2, #fff)" />
        </symbol>
    </defs>
</svg>